<?xml version="1.0" encoding="UTF-8" standalone="no"?>
<svg
   viewBox="0 0 799.99998 800.00007"
   width="800"
   height="800"
   version="1.1"
   id="svg9"
   sodipodi:docname="DSD_logo_square_black.svg"
   inkscape:version="1.2.1 (9c6d41e4, 2022-07-14)"
   xmlns:inkscape="http://www.inkscape.org/namespaces/inkscape"
   xmlns:sodipodi="http://sodipodi.sourceforge.net/DTD/sodipodi-0.dtd"
   xmlns="http://www.w3.org/2000/svg"
   xmlns:svg="http://www.w3.org/2000/svg">
  <sodipodi:namedview
     id="namedview9"
     pagecolor="#ffffff"
     bordercolor="#000000"
     borderopacity="0.25"
     inkscape:showpageshadow="2"
     inkscape:pageopacity="0.0"
     inkscape:pagecheckerboard="0"
     inkscape:deskcolor="#d1d1d1"
     inkscape:zoom="0.84096523"
     inkscape:cx="383.48791"
     inkscape:cy="450.07806"
     inkscape:window-width="1552"
     inkscape:window-height="849"
     inkscape:window-x="2086"
     inkscape:window-y="50"
     inkscape:window-maximized="0"
     inkscape:current-layer="g9"
     showgrid="false" />
  <desc
     id="desc1">Stealthchanger_logo.dxf - scale = 1.000000, origin = (0.000000, 0.000000), method = manual</desc>
  <defs
     id="defs4">
    <marker
       id="DistanceX"
       orient="auto"
       refX="0"
       refY="0"
       style="overflow:visible">
      <path
         d="M 3,-3 -3,3 M 0,-5 V 5"
         style="stroke:#000000;stroke-width:0.5"
         id="path1" />
    </marker>
    <pattern
       id="Hatch"
       patternUnits="userSpaceOnUse"
       width="8"
       height="8"
       x="0"
       y="0">
      <path
         d="M8 4 l-4,4"
         stroke="#000000"
         stroke-width="0.25"
         linecap="square"
         id="path2" />
      <path
         d="M6 2 l-4,4"
         stroke="#000000"
         stroke-width="0.25"
         linecap="square"
         id="path3" />
      <path
         d="M4 0 l-4,4"
         stroke="#000000"
         stroke-width="0.25"
         linecap="square"
         id="path4" />
    </pattern>
    <symbol
       id="*MODEL_SPACE" />
    <symbol
       id="*PAPER_SPACE" />
    <filter
       style="color-interpolation-filters:sRGB;"
       inkscape:label="Greyscale"
       id="filter2119"
       x="-inf"
       y="-0.14463637"
       width="inf"
       height="1.2892727">
      <feColorMatrix
         values="0.21 -7.59494 -8.35443 0 0 0.21 -7.59494 -8.35443 0 0 0.21 -7.59494 -8.35443 0 0 0 0 0 1 0 "
         id="feColorMatrix2117"
         result="fbSourceGraphic" />
      <feColorMatrix
         result="fbSourceGraphicAlpha"
         in="fbSourceGraphic"
         values="0 0 0 -1 0 0 0 0 -1 0 0 0 0 -1 0 0 0 0 1 0"
         id="feColorMatrix2165" />
      <feColorMatrix
         id="feColorMatrix2167"
         values="0.21 -7.59494 -8.35443 -10 0 0.21 -7.59494 -8.35443 -10 0 0.21 -7.59494 -8.35443 -10 0 0 0 0 1 0 "
         in="fbSourceGraphic" />
    </filter>
    <filter
       style="color-interpolation-filters:sRGB;"
       inkscape:label="Greyscale"
       id="filter2123"
       x="-inf"
       y="0"
       width="inf"
       height="1">
      <feColorMatrix
         values="0.21 -7.59494 -8.35443 0 0 0.21 -7.59494 -8.35443 0 0 0.21 -7.59494 -8.35443 0 0 0 0 0 1 0 "
         id="feColorMatrix2121"
         result="fbSourceGraphic" />
      <feColorMatrix
         result="fbSourceGraphicAlpha"
         in="fbSourceGraphic"
         values="0 0 0 -1 0 0 0 0 -1 0 0 0 0 -1 0 0 0 0 1 0"
         id="feColorMatrix2169" />
      <feColorMatrix
         id="feColorMatrix2171"
         values="0.21 -7.59494 -8.35443 -10 0 0.21 -7.59494 -8.35443 -10 0 0.21 -7.59494 -8.35443 -10 0 0 0 0 1 0 "
         in="fbSourceGraphic" />
    </filter>
    <filter
       style="color-interpolation-filters:sRGB;"
       inkscape:label="Greyscale"
       id="filter2127"
       x="-0.045457131"
       y="0"
       width="1.0909143"
       height="1.0400663">
      <feColorMatrix
         values="0.21 -7.59494 -8.35443 0 0 0.21 -7.59494 -8.35443 0 0 0.21 -7.59494 -8.35443 0 0 0 0 0 1 0 "
         id="feColorMatrix2125"
         result="fbSourceGraphic" />
      <feColorMatrix
         result="fbSourceGraphicAlpha"
         in="fbSourceGraphic"
         values="0 0 0 -1 0 0 0 0 -1 0 0 0 0 -1 0 0 0 0 1 0"
         id="feColorMatrix2173" />
      <feColorMatrix
         id="feColorMatrix2175"
         values="0.21 -7.59494 -8.35443 -10 0 0.21 -7.59494 -8.35443 -10 0 0.21 -7.59494 -8.35443 -10 0 0 0 0 1 0 "
         in="fbSourceGraphic" />
    </filter>
    <filter
       style="color-interpolation-filters:sRGB;"
       inkscape:label="Greyscale"
       id="filter2131"
       x="-0.36582803"
       y="-0.3305016"
       width="1.7316561"
       height="1.6610032">
      <feColorMatrix
         values="0.21 -7.59494 -8.35443 0 0 0.21 -7.59494 -8.35443 0 0 0.21 -7.59494 -8.35443 0 0 0 0 0 1 0 "
         id="feColorMatrix2129"
         result="fbSourceGraphic" />
      <feColorMatrix
         result="fbSourceGraphicAlpha"
         in="fbSourceGraphic"
         values="0 0 0 -1 0 0 0 0 -1 0 0 0 0 -1 0 0 0 0 1 0"
         id="feColorMatrix2177" />
      <feColorMatrix
         id="feColorMatrix2179"
         values="0.21 -7.59494 -8.35443 -10 0 0.21 -7.59494 -8.35443 -10 0 0.21 -7.59494 -8.35443 -10 0 0 0 0 1 0 "
         in="fbSourceGraphic" />
    </filter>
    <filter
       style="color-interpolation-filters:sRGB;"
       inkscape:label="Greyscale"
       id="filter2135"
       x="-0.050696126"
       y="-0.029220898"
       width="1.0645871"
       height="1.0584416">
      <feColorMatrix
         values="0.21 -7.59494 -8.35443 0 0 0.21 -7.59494 -8.35443 0 0 0.21 -7.59494 -8.35443 0 0 0 0 0 1 0 "
         id="feColorMatrix2133"
         result="fbSourceGraphic" />
      <feColorMatrix
         result="fbSourceGraphicAlpha"
         in="fbSourceGraphic"
         values="0 0 0 -1 0 0 0 0 -1 0 0 0 0 -1 0 0 0 0 1 0"
         id="feColorMatrix2181" />
      <feColorMatrix
         id="feColorMatrix2183"
         values="0.21 -7.59494 -8.35443 -10 0 0.21 -7.59494 -8.35443 -10 0 0.21 -7.59494 -8.35443 -10 0 0 0 0 1 0 "
         in="fbSourceGraphic" />
    </filter>
    <filter
       style="color-interpolation-filters:sRGB;"
       inkscape:label="Greyscale"
       id="filter2139"
       x="-0.050130152"
       y="-0.040585195"
       width="1.1002603"
       height="1.0811704">
      <feColorMatrix
         values="0.21 -7.59494 -8.35443 0 0 0.21 -7.59494 -8.35443 0 0 0.21 -7.59494 -8.35443 0 0 0 0 0 1 0 "
         id="feColorMatrix2137"
         result="fbSourceGraphic" />
      <feColorMatrix
         result="fbSourceGraphicAlpha"
         in="fbSourceGraphic"
         values="0 0 0 -1 0 0 0 0 -1 0 0 0 0 -1 0 0 0 0 1 0"
         id="feColorMatrix2185" />
      <feColorMatrix
         id="feColorMatrix2187"
         values="0.21 -7.59494 -8.35443 -10 0 0.21 -7.59494 -8.35443 -10 0 0.21 -7.59494 -8.35443 -10 0 0 0 0 1 0 "
         in="fbSourceGraphic" />
    </filter>
    <filter
       style="color-interpolation-filters:sRGB;"
       inkscape:label="Greyscale"
       id="filter2143"
       x="-0.050130152"
       y="-0.040585195"
       width="1.1002603"
       height="1.0811704">
      <feColorMatrix
         values="0.21 -7.59494 -8.35443 0 0 0.21 -7.59494 -8.35443 0 0 0.21 -7.59494 -8.35443 0 0 0 0 0 1 0 "
         id="feColorMatrix2141"
         result="fbSourceGraphic" />
      <feColorMatrix
         result="fbSourceGraphicAlpha"
         in="fbSourceGraphic"
         values="0 0 0 -1 0 0 0 0 -1 0 0 0 0 -1 0 0 0 0 1 0"
         id="feColorMatrix2189" />
      <feColorMatrix
         id="feColorMatrix2191"
         values="0.21 -7.59494 -8.35443 -10 0 0.21 -7.59494 -8.35443 -10 0 0.21 -7.59494 -8.35443 -10 0 0 0 0 1 0 "
         in="fbSourceGraphic" />
    </filter>
    <filter
       style="color-interpolation-filters:sRGB;"
       inkscape:label="Greyscale"
       id="filter2147"
       x="0"
       y="0"
       width="1"
       height="1">
      <feColorMatrix
         values="0.21 -7.59494 -8.35443 0 0 0.21 -7.59494 -8.35443 0 0 0.21 -7.59494 -8.35443 0 0 0 0 0 1 0 "
         id="feColorMatrix2145"
         result="fbSourceGraphic" />
      <feColorMatrix
         result="fbSourceGraphicAlpha"
         in="fbSourceGraphic"
         values="0 0 0 -1 0 0 0 0 -1 0 0 0 0 -1 0 0 0 0 1 0"
         id="feColorMatrix2193" />
      <feColorMatrix
         id="feColorMatrix2195"
         values="0.21 -7.59494 -8.35443 -10 0 0.21 -7.59494 -8.35443 -10 0 0.21 -7.59494 -8.35443 -10 0 0 0 0 1 0 "
         in="fbSourceGraphic" />
    </filter>
    <filter
       style="color-interpolation-filters:sRGB;"
       inkscape:label="Greyscale"
       id="filter2151"
       x="0"
       y="0"
       width="1"
       height="1">
      <feColorMatrix
         values="0.21 -7.59494 -8.35443 0 0 0.21 -7.59494 -8.35443 0 0 0.21 -7.59494 -8.35443 0 0 0 0 0 1 0 "
         id="feColorMatrix2149"
         result="fbSourceGraphic" />
      <feColorMatrix
         result="fbSourceGraphicAlpha"
         in="fbSourceGraphic"
         values="0 0 0 -1 0 0 0 0 -1 0 0 0 0 -1 0 0 0 0 1 0"
         id="feColorMatrix2197" />
      <feColorMatrix
         id="feColorMatrix2199"
         values="0.21 -7.59494 -8.35443 -10 0 0.21 -7.59494 -8.35443 -10 0 0.21 -7.59494 -8.35443 -10 0 0 0 0 1 0 "
         in="fbSourceGraphic" />
    </filter>
  </defs>
  <g
     inkscape:groupmode="layer"
     inkscape:label="0"
     id="g9">
    <path
       d="M 114.03307,233.49508 401.69398,67.413963 689.35492,233.49508 v 166.08111 h 95.88697 l -95.88697,95.88698 -47.94349,-27.68019 V 261.17525 L 401.69398,122.77433 161.97655,261.17525 Z"
       style="fill:#000000;fill-opacity:1;stroke:none;stroke-width:11.22386742;filter:url(#filter2151)"
       id="path5" />
    <path
       d="M 689.35492,565.65732 401.69398,731.73839 114.03307,565.65732 V 399.57619 H 18.146084 l 95.886986,-95.88696 47.94348,27.68018 V 537.97709 L 401.69398,676.37805 641.41143,537.97709 Z"
       style="fill:#000000;fill-opacity:1;stroke:none;stroke-width:11.22386742;filter:url(#filter2147)"
       id="path6" />
    <path
       id="text2"
       style="font-size:192px;font-family:Titanfall;-inkscape-font-specification:Titanfall;fill:#000000;stroke:#db3f38;stroke-width:11.22386742;stroke-dasharray:none;filter:url(#filter2143)"
       d="m 493.12401,413.30661 v 28.17163 l 28.13086,0.16601 v -0.20873 h 14.63672 c 5.6695,0 10.9845,1.0909 15.94531,3.27148 5.01533,2.12606 9.37701,5.04302 13.08399,8.75 3.70698,3.70699 6.62393,8.06866 8.75,13.08399 2.18058,4.96081 3.26953,10.27581 3.26953,15.94531 0,5.6695 -1.08895,10.9845 -3.26953,15.94531 -2.12607,4.96081 -5.04302,9.29497 -8.75,13.00196 -3.70698,3.70698 -8.06866,6.6495 -13.08399,8.83007 -4.96081,2.12606 -10.27581,3.18946 -15.94531,3.18946 h -14.63672 v -59.85283 l -28.13086,-0.16602 V 551.582 h 42.76758 c 6.3782,0 12.51089,-0.81768 18.39844,-2.45312 5.88756,-1.63543 11.39322,-3.95093 16.51758,-6.94922 5.12435,-2.9983 9.78676,-6.59731 13.98437,-10.79492 4.19762,-4.19761 7.79468,-8.85807 10.79297,-13.98243 3.05281,-5.12435 5.39777,-10.63001 7.0332,-16.51757 1.63544,-5.88756 2.45313,-12.02025 2.45313,-18.39844 0,-6.37819 -0.81769,-12.51088 -2.45313,-18.39844 -1.63543,-5.88756 -3.98039,-11.39517 -7.0332,-16.51953 -2.99829,-5.12435 -6.59535,-9.78481 -10.79297,-13.98242 -4.19761,-4.19761 -8.86002,-7.79468 -13.98437,-10.79297 -5.12436,-3.05281 -10.63002,-5.39777 -16.51758,-7.0332 -5.88755,-1.63543 -12.02024,-2.45313 -18.39844,-2.45313 z"
       sodipodi:nodetypes="ccccscscscscsccccsssscssscscssc" />
    <path
       id="text2-4"
       style="font-size:192px;font-family:Titanfall;-inkscape-font-specification:Titanfall;fill:#000000;stroke:#db3f38;stroke-width:11.22386742;stroke-dasharray:none;filter:url(#filter2139)"
       d="M 196.87489,362.62137 V 390.793 l 28.13086,0.16601 v -0.20873 h 14.63672 c 5.6695,0 10.9845,1.0909 15.94531,3.27148 5.01533,2.12606 9.37701,5.04302 13.08399,8.75 3.70698,3.70699 6.62393,8.06866 8.75,13.08399 2.18058,4.96081 3.26953,10.27581 3.26953,15.94531 0,5.6695 -1.08895,10.9845 -3.26953,15.94531 -2.12607,4.96081 -5.04302,9.29497 -8.75,13.00196 -3.70698,3.70698 -8.06866,6.6495 -13.08399,8.83007 -4.96081,2.12606 -10.27581,3.18946 -15.94531,3.18946 h -14.63672 v -59.85283 l -28.13086,-0.16602 v 88.14775 h 42.76758 c 6.3782,0 12.51089,-0.81768 18.39844,-2.45312 5.88756,-1.63543 11.39322,-3.95093 16.51758,-6.94922 5.12435,-2.9983 9.78676,-6.59731 13.98437,-10.79492 4.19762,-4.19761 7.79468,-8.85807 10.79297,-13.98243 3.05281,-5.12435 5.39777,-10.63001 7.0332,-16.51757 1.63544,-5.88756 2.45313,-12.02025 2.45313,-18.39844 0,-6.37819 -0.81769,-12.51088 -2.45313,-18.39844 -1.63543,-5.88756 -3.98039,-11.39517 -7.0332,-16.51953 -2.99829,-5.12435 -6.59535,-9.78481 -10.79297,-13.98242 -4.19761,-4.19761 -8.86002,-7.79468 -13.98437,-10.79297 -5.12436,-3.05281 -10.63002,-5.39777 -16.51758,-7.0332 -5.88755,-1.63543 -12.02024,-2.45313 -18.39844,-2.45313 z"
       sodipodi:nodetypes="ccccscscscscsccccsssscssscscssc" />
    <path
       id="text3"
       style="font-size:266.667px;font-family:Titanfall;-inkscape-font-specification:Titanfall;fill:#000000;stroke:#db3f38;stroke-width:11.22386742;stroke-dasharray:none;stroke-dashoffset:0;filter:url(#filter2135)"
       d="m 379.83984,362.89648 c -7.95002,0 -15.44681,1.51439 -22.48828,4.54297 -7.04145,3.02859 -13.17413,7.1546 -18.39844,12.37891 -5.2243,5.2243 -9.35031,11.35698 -12.3789,18.39844 -3.02859,7.04146 -4.54297,14.53826 -4.54297,22.48828 0,7.95003 1.51438,15.44486 4.54297,22.48633 3.02859,7.04145 7.1546,13.17413 12.3789,18.39843 5.22431,5.22431 11.35699,9.35032 18.39844,12.37891 7.04147,3.02859 14.53826,4.54297 22.48828,4.54297 h 40.08985 c 2.57429,0 4.99809,0.49227 7.26953,1.47656 2.27144,0.98429 4.23858,2.34841 5.9043,4.08984 1.74142,1.66572 3.10555,3.63286 4.08984,5.9043 0.98429,2.27144 1.47656,4.69525 1.47656,7.26953 0,2.5743 -0.49227,4.99614 -1.47656,7.26758 -0.98429,2.27144 -2.34842,4.24053 -4.08984,5.90625 -1.66572,1.66573 -3.63286,2.99032 -5.9043,3.97461 -2.27144,0.98429 -4.69524,1.47656 -7.26953,1.47656 H 199.38477 l 63.4834,37.3867 157.06152,1.68166 c 7.94957,0.0851 15.44683,-1.51243 22.48828,-4.54101 7.04145,-3.02859 13.17413,-7.15656 18.39844,-12.38086 5.2243,-5.22431 9.35032,-11.31942 12.3789,-18.28516 3.02858,-7.04146 4.54297,-14.53629 4.54297,-22.48633 0,-7.95002 -1.51439,-15.44682 -4.54297,-22.48828 -3.02858,-7.04145 -7.1546,-13.17413 -12.3789,-18.39844 -5.22431,-5.2243 -11.35699,-9.35031 -18.39844,-12.3789 -7.04145,-3.02859 -14.53825,-4.54297 -22.48828,-4.54297 h -40.08985 c -2.57428,0 -4.99809,-0.49227 -7.26953,-1.47656 -2.19573,-0.98429 -4.16481,-2.30889 -5.90625,-3.97461 -1.66572,-1.74144 -2.99032,-3.7481 -3.97461,-6.01953 -0.98429,-2.27144 -1.47656,-4.69328 -1.47656,-7.26758 0,-2.57429 0.49227,-4.9981 1.47656,-7.26953 0.98429,-2.27144 2.30889,-4.24053 3.97461,-5.90625 1.74144,-1.74144 3.71052,-3.1036 5.90625,-4.08789 2.27144,-0.98429 4.69533,-1.45617 7.26953,-1.47657 l 225.50977,-1.7832 0.14258,-27.39648 H 394.78516 v -9.88868 z"
       sodipodi:nodetypes="ssssssssssscssscssccssscssssssccssssccccccs" />
    <path
       class="st1"
       d="m 402.05372,355.09075 v 15.79094 l -15.34036,1.18911"
       id="path1-5"
       sodipodi:nodetypes="ccc"
       style="fill:#000000;stroke:#db3f38;stroke-width:11.22386742;stroke-linecap:round;stroke-linejoin:round;stroke-miterlimit:10;stroke-dasharray:none;stroke-opacity:1;filter:url(#filter2131)" />
    <path
       style="fill:#000000;stroke:#db3f38;stroke-width:11.22386742;stroke-linecap:butt;stroke-linejoin:bevel;stroke-miterlimit:10;stroke-opacity:1;stroke-dasharray:none;filter:url(#filter2127)"
       d="m 339.55082,187.27226 v 62.08048 l 44.09125,77.60062 h 17.6365 17.63652 l 44.09125,-77.60062 v -62.46569"
       id="path2-4"
       sodipodi:nodetypes="ccccccc" />
    <line
       class="st1"
       x1="404.23187"
       x2="404.23187"
       y1="199.42908"
       y2="280.90973"
       id="line2"
       style="fill:#000000;stroke:#db3f38;stroke-width:11.22386742;stroke-linecap:butt;stroke-linejoin:bevel;stroke-miterlimit:10;stroke-opacity:1;stroke-dasharray:none;filter:url(#filter2123)" />
    <line
       class="st1"
       x1="374.41376"
       x2="374.41376"
       y1="199.42908"
       y2="238.22937"
       id="line3"
       style="fill:#000000;stroke:#db3f38;stroke-width:11.22386742;stroke-linecap:square;stroke-linejoin:bevel;stroke-miterlimit:10;stroke-opacity:1;stroke-dasharray:none;filter:url(#filter2119)" />
  </g>
</svg>
